<svg xmlns="http://www.w3.org/2000/svg" width="774" height="785" viewBox="0 0 774 785">
    <path fill="#7E7E7E" fill-rule="evenodd" d="M196.94 116.025l1.12-1.05-1.12 1.05zm86.897-67.509C279.207 41.735 260.54 16.121 258 12.33L279.178 0c2.965 4.408 21.39 33.81 25.17 39.577 31.193-12.02 65.107-18.802 100.686-18.802 114.147 0 214.439 67.134 252.83 164.35 15.34 38.807 19.726 75.888 21.057 99.684 1.483 26.662 2.36 38.683 1.997 39.485-3.69.061-21.238.154-24.99.277-51.673 1.541-113.905 5.394-183.882 13.621-7.654.897-15.309 1.79-23.144 2.808a2467.017 2467.017 0 0 0-9.833-20.251c-3.721-7.613-7.805-15.504-11.678-23.21-4.235-8.477-8.41-16.86-12.797-25.43-11.134-21.607-22.66-43.43-34.943-65.623-1.967-3.544-4.024-7.12-6.02-10.665-1.998-3.575-4.025-7.123-6.021-10.695A2404.356 2404.356 0 0 0 298.69 71.17c-.211-.373-.453-.74-.695-1.11-4.418-6.873-9.016-13.747-13.554-20.62v-.031c-.151-.247-.363-.524-.605-.894zM137.51 407.888C95.041 420.123 51.783 434.027 7.948 450L0 429.98c46.535-16.994 92.493-31.608 137.511-44.43l.273-99.548c-.637-50.825 20.871-99.92 20.871-99.92 11.983-27.806 28.789-53.141 49.295-75.232.365-.37.698-.773 1.062-1.174L224.302 95c.667 1.081 6.036 10.196 13.317 22.493 17.26 29.228 45.321 76.777 46.808 79.31 2.123 3.554 4.338 7.138 6.43 10.69a1518.683 1518.683 0 0 1 36.343 65.78c4.459 8.527 8.736 17.023 12.923 25.489 6.127 12.297 12.104 24.532 17.716 36.643 3.155 6.797 6.158 13.502 9.161 20.206a2474.606 2474.606 0 0 0-22.54 3.924c-58.608 10.629-120.523 24.347-184.591 42.02-3.701 1.019-7.463 2.1-11.164 3.15-3.731 1.051-7.462 2.102-11.194 3.183zM473.627 722.82c7.282 45.362 7.312 59.373 7.373 60.363L458.73 785c-.06-.954-.182-16.202-7.706-62.181H132V522.595c3.732-1.42 7.464-2.842 11.195-4.227 3.702-1.39 7.464-2.84 11.166-4.198 77.184-28.422 151.73-50.645 221.177-67.924 7.343-1.82 14.533-3.518 21.754-5.246 2.549 6.758 5.128 13.517 7.524 20.183 35.073 96.868 54.521 180.689 65.17 240.219.668 3.672 1.275 7.218 1.882 10.705.606 3.704 1.213 7.225 1.76 10.712zM429.69 391.816c54.227 121.401 92.302 251.423 124.304 353.173L520.17 755s-31.82-152.516-107.604-359.353C218.094 439.771 88.78 490.754 88.78 490.754L77 464.83c103.81-31.548 193.834-53.486 329.766-84.786C372.275 287.378 284.315 136.469 231.423 32c1.822 2.843 119.75 185.856 191.86 345.572C583.052 353.903 774 346.612 774 346.612c-107.422 10.968-256.32 25.83-344.31 45.204zm344.31-5.79v21.577c-1.398-.062-11.214-1.11-94.51 7.305V723h-83.906c-.972-3.36-2.036-7.028-3.1-10.696-1.003-3.422-2.066-6.997-3.16-10.696-17.535-58.906-47.924-150.394-94.633-259.451A4599.354 4599.354 0 0 0 486 422.09c7.537-1.449 15.073-2.928 22.427-4.254 55.704-10.233 105.786-17.169 148.665-21.947a2078.7 2078.7 0 0 1 11.214-1.264c3.829-.4 7.476-.74 11.183-1.11 83.57-8.353 93.174-7.49 94.511-7.49z" opacity=".05"/>
</svg>
