<svg xmlns="http://www.w3.org/2000/svg" width="63" height="74" viewBox="0 0 63 74">
    <g fill="#007EE7" fill-rule="nonzero">
        <path d="M62.4 35.906l-11.263-9.05h-8.7c.225-.93.353-1.89.353-2.87C42.79 17.378 37.487 12 30.97 12c-6.518 0-11.82 5.377-11.82 11.987 0 .98.127 1.94.352 2.87H12.07L.433 35.965l.006.009H.4v9.92h4.891v28.103h2.446V45.894h47.28V74h2.445V45.894h4.892v-9.92h-.007l.053-.068zM30.97 14.48c5.169 0 9.374 4.265 9.374 9.507 0 2.68-1.105 5.21-3.044 7.011H24.64a9.549 9.549 0 0 1-3.045-7.011c0-5.242 4.205-9.507 9.375-9.507zM12.904 29.337h7.498c.286.58.62 1.134.996 1.662h-6.732v2.48h9.072l.018.016h14.426l.018-.016h9.888v-2.48H40.54c.377-.528.71-1.083.996-1.662h8.749l8.262 6.637H4.424l8.48-6.637zM59.91 43.414H2.846v-4.96h57.063v4.96z"/>
        <path d="M29.63 30h2.54v-1.647h.828c1.876 0 3.402-1.375 3.402-3.065v-.459c0-1.69-1.526-3.065-3.402-3.065h-.83v-1.647H36.4v-2.47h-4.232V16H29.63v1.647h-.983c-1.79 0-3.247 1.375-3.247 3.065v.459c0 1.69 1.457 3.065 3.247 3.065h.983v1.647H25.4v2.47h4.23V30zm-.983-8.235c-.384 0-.709-.272-.709-.594v-.459c0-.323.325-.595.709-.595h.983v1.647h-.983v.001zm3.521 2.47h.83c.509 0 .864.314.864.595v.459c0 .281-.355.594-.864.594h-.829v-1.647zM34.439 51c-1.685 0-3.039.397-4.042 1.184C29.381 51.397 28.003 51 26.278 51c-3.296 0-5.878 2.625-5.878 5.975 0 2.58 2.94 6.247 8.987 11.209l.99.816.804-.695c.256-.22.581-.492.955-.801 3.998-3.32 8.264-7.145 8.264-10.529 0-3.35-2.618-5.975-5.961-5.975zm-3.912 14.64c-.06.05-.12.098-.176.147-6.911-5.784-7.461-8.198-7.461-8.812 0-2.014 1.456-3.533 3.388-3.533 1.539 0 2.545.393 3.074 1.204l1.048 1.603 1.049-1.603c.337-.517 1.015-1.204 2.99-1.204 1.948 0 3.473 1.551 3.473 3.533-.002 2.534-5.175 6.83-7.385 8.664zM31.4 0h2v11h-2zM27.4 4h2v5h-2z"/>
    </g>
</svg>
