<svg xmlns="http://www.w3.org/2000/svg" width="64" height="65" viewBox="0 0 64 65">
    <g fill="#007EE7" fill-rule="nonzero" stroke="#FFF">
        <path d="M37.497 40.694a1.793 1.793 0 0 0 2.005 0c.617-.414 15.13-10.224 20.477-20.078A12.723 12.723 0 0 0 62 13.726C62 6.709 56.323 1 49.347 1c-5.131 0-8.93 4.282-10.847 6.519C36.584 5.282 32.785 1 27.655 1 20.677 1 15 6.708 15 13.727c0 2.447.7 4.827 2.02 6.889 5.346 9.854 19.86 19.664 20.477 20.078zM27.655 4.635c3.614 0 6.637 3.538 8.263 5.439 1.01 1.182 1.566 1.834 2.582 1.834 1.017 0 1.573-.652 2.584-1.834 1.624-1.902 4.648-5.439 8.263-5.439 4.984 0 9.039 4.08 9.039 9.092 0 1.764-.51 3.481-1.473 4.963a1.824 1.824 0 0 0-.076.129c-4.13 7.67-14.979 15.765-18.336 18.15-3.357-2.385-14.205-10.48-18.336-18.15a2.14 2.14 0 0 0-.076-.13 9.087 9.087 0 0 1-1.473-4.962c-.001-5.012 4.054-9.092 9.039-9.092z"/>
        <path d="M60.52 39.17c-3.296-1.955-6.06.944-7.1 2.034-2.195 2.301-4.838 4.576-6.176 5.693a4.586 4.586 0 0 0-1.855-.41c-4.076-.222-10.5-.966-12.108-1.934-1.728-1.04-3.112-2.055-4.332-2.95C25.443 39.032 22.674 37 15.778 37c-2 0-3.752.56-5.447 1.105-1.74.558-3.383 1.085-5.366 1.085C2.778 39.19 1 40.99 1 43.203v10.215c0 2.214 1.778 4.014 3.965 4.014 3.77 0 9.663.196 10.964.636 2.343.79 7.837 4.088 9.755 5.29l.074.045c.695.39 1.482.597 2.277.597h18.327c1.94 0 4.096-1.817 4.844-3.073 2.403-4.037 11.02-15.02 11.106-15.13.078-.1.145-.208.2-.32 1.117-2.26.26-4.973-1.992-6.307zM46.361 60.35H28.034c-.173 0-.344-.042-.497-.121-.678-.425-7.346-4.57-10.469-5.623-2.321-.783-10.49-.823-12.103-.823a.363.363 0 0 1-.362-.365V43.203c0-.203.162-.366.362-.366 2.539 0 4.62-.667 6.453-1.255 1.566-.501 2.918-.934 4.36-.934 5.726 0 7.732 1.47 11.057 3.909 1.282.94 2.736 2.006 4.603 3.132.937.564 2.49 1.007 4.23 1.352 3.743.74 8.352 1.026 9.573 1.092.03.002.062.002.095.002.595 0 1.081.49 1.081 1.095 0 .604-.485 1.093-1.081 1.093-.032 0-.063.002-.095.004l-13.639.726c-1.086-.04-3.649-1.877-5.351-3.096-.44-.317-.87-.62-1.293-.916-.922-.645-1.801-1.225-2.606-1.632a1.789 1.789 0 0 0-2.417.816 1.836 1.836 0 0 0 .805 2.448c.929.468 2.143 1.34 3.43 2.262 2.703 1.938 5.257 3.768 7.47 3.768l.094-.002 13.656-.728c2.56-.029 4.633-2.147 4.633-4.742 0-.588-.105-1.15-.3-1.67 1.446-1.213 4.05-3.473 6.291-5.82 1.535-1.61 2.148-1.741 2.687-1.422.478.284.828.839.644 1.395-1.198 1.53-8.852 11.344-11.225 15.33-.317.529-1.374 1.265-1.759 1.306z"/>
    </g>
</svg>
